# xmcd
#
# Track frame offsets:
#        150
#        11665
#        24027
#        39977
#        57915
#
# Disc length: 1000 seconds
#
# Revision: 0
# Processed by: cddbd v1.5.1PL0 Copyright (c) Steve Scherf et al.
# Submitted via: ExactAudioCopy v0.95a5
#
DISCID=2d03e605
DTITLE=bis - tell it to the kids
DYEAR=1900
DGENRE=Rock
TTITLE0=tell it to the kids
TTITLE1=statment of intent
TTITLE2=girl star
TTITLE3=cookie cutter fik
TTITLE4=automatic freestyle
EXTD=
EXTT0=
EXTT1=
EXTT2=
EXTT3=
EXTT4=
PLAYORDER=
